<svg width="24" height="20" viewBox="0 0 24 20" fill="none" xmlns="http://www.w3.org/2000/svg">
<path d="M0 0V20H24V0H0ZM13 15H3V14.583C2.996 13.471 3.044 12.836 4.324 12.54C5.727 12.216 7.111 11.927 6.446 10.699C4.473 7.062 5.883 5 8 5C10.077 5 11.521 6.985 9.556 10.699C8.909 11.919 10.244 12.209 11.677 12.54C12.961 12.837 13.005 13.476 13 14.597V15V15ZM21 15H15V13H21V15ZM21 11H15V9H21V11ZM21 7H15V5H21V7Z" fill="url(#paint0_linear)"/>
<defs>
<linearGradient id="paint0_linear" x1="24" y1="0" x2="-4.76837e-07" y2="20" gradientUnits="userSpaceOnUse">
<stop stop-color="#2978D6"/>
<stop offset="1" stop-color="#94BBE9"/>
</linearGradient>
</defs>
</svg>
